<mxfile host="Electron" agent="Mozilla/5.0 (Windows NT 10.0; Win64; x64) AppleWebKit/537.36 (KHTML, like Gecko) draw.io/25.0.2 Chrome/128.0.6613.186 Electron/32.2.5 Safari/537.36" version="25.0.2">
  <diagram name="Page-1" id="2cc2dc42-3aac-f2a9-1cec-7a8b7cbee084">
    <mxGraphModel dx="1295" dy="818" grid="1" gridSize="10" guides="1" tooltips="1" connect="1" arrows="1" fold="1" page="1" pageScale="1" pageWidth="1100" pageHeight="850" background="#ffffff" math="0" shadow="0">
      <root>
        <mxCell id="0" />
        <mxCell id="1" parent="0" />
        <mxCell id="7026571954dc6520-1" value="&lt;div&gt;&lt;br&gt;&lt;/div&gt;&lt;div&gt;&lt;br&gt;&lt;/div&gt;&lt;div&gt;&lt;br&gt;&lt;/div&gt;&lt;div&gt;&lt;br&gt;&lt;/div&gt;" style="strokeWidth=1;shadow=0;dashed=0;align=center;html=1;shape=mxgraph.mockup.containers.browserWindow;rSize=0;strokeColor=#6e6e6e;mainText=,;recursiveResize=0;rounded=0;labelBackgroundColor=none;fontFamily=Verdana;fontSize=12;movable=0;resizable=0;rotatable=0;deletable=0;editable=0;locked=1;connectable=0;fillColor=default;" parent="1" vertex="1">
          <mxGeometry x="25" y="20" width="1050" height="1290" as="geometry" />
        </mxCell>
        <mxCell id="7026571954dc6520-2" value="LIGA DEP..." style="strokeWidth=1;shadow=0;dashed=0;align=center;html=1;shape=mxgraph.mockup.containers.anchor;fontSize=17;fontColor=#666666;align=left;" parent="7026571954dc6520-1" vertex="1">
          <mxGeometry x="60" y="12" width="110" height="26" as="geometry" />
        </mxCell>
        <mxCell id="7026571954dc6520-3" value="https://www.ligadeportivacantonaldebiblian.com" style="strokeWidth=1;shadow=0;dashed=0;align=center;html=1;shape=mxgraph.mockup.containers.anchor;rSize=0;fontSize=17;fontColor=#666666;align=left;" parent="7026571954dc6520-1" vertex="1">
          <mxGeometry x="130" y="60" width="250" height="26" as="geometry" />
        </mxCell>
        <mxCell id="J-Y7H0dTVJ3gCG0rteRI-6" value="" style="verticalLabelPosition=bottom;shadow=0;dashed=0;align=center;html=1;verticalAlign=top;strokeWidth=1;shape=mxgraph.mockup.graphics.simpleIcon;strokeColor=#999999;" parent="7026571954dc6520-1" vertex="1">
          <mxGeometry x="20" y="130" width="50" height="50" as="geometry" />
        </mxCell>
        <mxCell id="J-Y7H0dTVJ3gCG0rteRI-8" value="" style="html=1;shadow=0;dashed=0;shape=mxgraph.bootstrap.rrect;rSize=5;strokeColor=#CED4DA;html=1;whiteSpace=wrap;fillColor=#FFFFFF;fontColor=#7D868C;align=left;spacing=15;spacingLeft=40;fontSize=14;" parent="7026571954dc6520-1" vertex="1">
          <mxGeometry x="300" y="140" width="650" height="30" as="geometry" />
        </mxCell>
        <mxCell id="J-Y7H0dTVJ3gCG0rteRI-9" value="buscar" style="html=1;shadow=0;dashed=0;shape=mxgraph.bootstrap.rightButton;strokeColor=#6C757D;gradientColor=inherit;fontColor=inherit;fillColor=inherit;rSize=5;perimeter=none;whiteSpace=wrap;resizeHeight=1;fontSize=14;align=left;spacing=15;" parent="J-Y7H0dTVJ3gCG0rteRI-8" vertex="1">
          <mxGeometry x="1" width="120" height="30" relative="1" as="geometry">
            <mxPoint x="-120" as="offset" />
          </mxGeometry>
        </mxCell>
        <mxCell id="J-Y7H0dTVJ3gCG0rteRI-10" value="" style="shape=triangle;direction=south;fillColor=#6C767D;strokeColor=none;perimeter=none;" parent="J-Y7H0dTVJ3gCG0rteRI-9" vertex="1">
          <mxGeometry x="1" y="0.5" width="10" height="5" relative="1" as="geometry">
            <mxPoint x="-17" y="-2.5" as="offset" />
          </mxGeometry>
        </mxCell>
        <mxCell id="J-Y7H0dTVJ3gCG0rteRI-11" value="" style="html=1;verticalLabelPosition=bottom;align=center;labelBackgroundColor=#ffffff;verticalAlign=top;strokeWidth=2;shadow=0;dashed=0;shape=mxgraph.ios7.icons.settings;" parent="7026571954dc6520-1" vertex="1">
          <mxGeometry x="1010" y="140" width="30" height="30" as="geometry" />
        </mxCell>
        <mxCell id="J-Y7H0dTVJ3gCG0rteRI-12" value="" style="verticalLabelPosition=bottom;shadow=0;dashed=0;align=center;html=1;verticalAlign=top;strokeWidth=1;shape=mxgraph.mockup.containers.userMale;strokeColor2=#008cff;gradientColor=none;" parent="7026571954dc6520-1" vertex="1">
          <mxGeometry x="970" y="140" width="30" height="30" as="geometry" />
        </mxCell>
        <mxCell id="J-Y7H0dTVJ3gCG0rteRI-13" value="FÚTBOL" style="text;html=1;align=center;verticalAlign=middle;whiteSpace=wrap;rounded=0;" parent="7026571954dc6520-1" vertex="1">
          <mxGeometry x="60" y="210" width="60" height="30" as="geometry" />
        </mxCell>
        <mxCell id="J-Y7H0dTVJ3gCG0rteRI-14" value="" style="endArrow=none;html=1;rounded=0;exitX=0.999;exitY=0.244;exitDx=0;exitDy=0;exitPerimeter=0;" parent="7026571954dc6520-1" edge="1">
          <mxGeometry width="50" height="50" relative="1" as="geometry">
            <mxPoint x="1059" y="250" as="sourcePoint" />
            <mxPoint y="250" as="targetPoint" />
          </mxGeometry>
        </mxCell>
        <mxCell id="J-Y7H0dTVJ3gCG0rteRI-15" value="NATACIÓN" style="text;html=1;align=center;verticalAlign=middle;whiteSpace=wrap;rounded=0;" parent="7026571954dc6520-1" vertex="1">
          <mxGeometry x="200" y="210" width="60" height="30" as="geometry" />
        </mxCell>
        <mxCell id="J-Y7H0dTVJ3gCG0rteRI-16" value="BOX" style="text;html=1;align=center;verticalAlign=middle;whiteSpace=wrap;rounded=0;" parent="7026571954dc6520-1" vertex="1">
          <mxGeometry x="350" y="210" width="60" height="30" as="geometry" />
        </mxCell>
        <mxCell id="J-Y7H0dTVJ3gCG0rteRI-17" value="JUDO" style="text;html=1;align=center;verticalAlign=middle;whiteSpace=wrap;rounded=0;" parent="7026571954dc6520-1" vertex="1">
          <mxGeometry x="484.75" y="210" width="60" height="30" as="geometry" />
        </mxCell>
        <mxCell id="J-Y7H0dTVJ3gCG0rteRI-18" value="AJEDREZ" style="text;html=1;align=center;verticalAlign=middle;whiteSpace=wrap;rounded=0;" parent="7026571954dc6520-1" vertex="1">
          <mxGeometry x="627.5" y="210" width="60" height="30" as="geometry" />
        </mxCell>
        <mxCell id="J-Y7H0dTVJ3gCG0rteRI-19" value="LUCHA OLIMPICA" style="text;html=1;align=center;verticalAlign=middle;whiteSpace=wrap;rounded=0;" parent="7026571954dc6520-1" vertex="1">
          <mxGeometry x="765" y="210" width="120" height="30" as="geometry" />
        </mxCell>
        <mxCell id="J-Y7H0dTVJ3gCG0rteRI-20" value="CROSSFIT" style="text;html=1;align=center;verticalAlign=middle;whiteSpace=wrap;rounded=0;" parent="7026571954dc6520-1" vertex="1">
          <mxGeometry x="955" y="210" width="60" height="30" as="geometry" />
        </mxCell>
        <mxCell id="J-Y7H0dTVJ3gCG0rteRI-50" value="" style="endArrow=none;html=1;rounded=0;exitX=0.143;exitY=1.004;exitDx=0;exitDy=0;exitPerimeter=0;" parent="7026571954dc6520-1" source="7026571954dc6520-1" edge="1">
          <mxGeometry width="50" height="50" relative="1" as="geometry">
            <mxPoint x="160" y="840" as="sourcePoint" />
            <mxPoint x="150" y="250" as="targetPoint" />
          </mxGeometry>
        </mxCell>
        <mxCell id="J-Y7H0dTVJ3gCG0rteRI-51" value="MASTER" style="text;html=1;align=center;verticalAlign=middle;whiteSpace=wrap;rounded=0;" parent="7026571954dc6520-1" vertex="1">
          <mxGeometry x="35" y="555" width="60" height="30" as="geometry" />
        </mxCell>
        <mxCell id="J-Y7H0dTVJ3gCG0rteRI-52" value="JUNIOR" style="text;html=1;align=center;verticalAlign=middle;whiteSpace=wrap;rounded=0;" parent="7026571954dc6520-1" vertex="1">
          <mxGeometry x="35" y="435" width="60" height="30" as="geometry" />
        </mxCell>
        <mxCell id="J-Y7H0dTVJ3gCG0rteRI-53" value="EQUIPO A" style="text;html=1;align=center;verticalAlign=middle;whiteSpace=wrap;rounded=0;" parent="7026571954dc6520-1" vertex="1">
          <mxGeometry x="35" y="465" width="60" height="30" as="geometry" />
        </mxCell>
        <mxCell id="J-Y7H0dTVJ3gCG0rteRI-54" value="EQUIPO D" style="text;html=1;align=center;verticalAlign=middle;whiteSpace=wrap;rounded=0;" parent="7026571954dc6520-1" vertex="1">
          <mxGeometry x="32.5" y="485" width="65" height="30" as="geometry" />
        </mxCell>
        <mxCell id="J-Y7H0dTVJ3gCG0rteRI-55" value="EQUIPO I" style="text;html=1;align=center;verticalAlign=middle;whiteSpace=wrap;rounded=0;" parent="7026571954dc6520-1" vertex="1">
          <mxGeometry x="32.5" y="505" width="60" height="30" as="geometry" />
        </mxCell>
        <mxCell id="J-Y7H0dTVJ3gCG0rteRI-56" value="EQUIPO M" style="text;html=1;align=center;verticalAlign=middle;whiteSpace=wrap;rounded=0;" parent="7026571954dc6520-1" vertex="1">
          <mxGeometry x="32.5" y="525" width="65" height="30" as="geometry" />
        </mxCell>
        <mxCell id="J-Y7H0dTVJ3gCG0rteRI-57" value="EQUIPO A" style="text;html=1;align=center;verticalAlign=middle;whiteSpace=wrap;rounded=0;" parent="7026571954dc6520-1" vertex="1">
          <mxGeometry x="35" y="585" width="60" height="30" as="geometry" />
        </mxCell>
        <mxCell id="J-Y7H0dTVJ3gCG0rteRI-110" value="PROXIMOS" style="strokeWidth=1;shadow=0;dashed=0;align=center;html=1;shape=mxgraph.mockup.forms.uRect;fontSize=17;fontColor=#ffffff;align=left;spacingLeft=5;strokeColor=default;fillColor=default;" parent="7026571954dc6520-1" vertex="1">
          <mxGeometry x="260" y="260" width="120" height="30" as="geometry" />
        </mxCell>
        <mxCell id="J-Y7H0dTVJ3gCG0rteRI-111" value="INICIO" style="strokeWidth=1;shadow=0;dashed=0;align=center;html=1;shape=mxgraph.mockup.forms.uRect;fontSize=17;fontColor=#ffffff;align=left;spacingLeft=5;strokeColor=#6e6e6e;fillColor=default;" parent="7026571954dc6520-1" vertex="1">
          <mxGeometry x="160" y="260" width="90" height="30" as="geometry" />
        </mxCell>
        <mxCell id="J-Y7H0dTVJ3gCG0rteRI-112" value="FINALIZADOS" style="strokeWidth=1;shadow=0;dashed=0;align=center;html=1;shape=mxgraph.mockup.forms.uRect;fontSize=17;fontColor=#ffffff;align=left;spacingLeft=5;strokeColor=#006EAF;fillColor=#008cff;" parent="7026571954dc6520-1" vertex="1">
          <mxGeometry x="385" y="260" width="125" height="30" as="geometry" />
        </mxCell>
        <mxCell id="J-Y7H0dTVJ3gCG0rteRI-113" value="PROXIMOS" style="strokeWidth=1;shadow=0;dashed=0;align=center;html=1;shape=mxgraph.mockup.forms.uRect;fontSize=17;fontColor=#666666;align=left;spacingLeft=5;strokeColor=#666666;" parent="7026571954dc6520-1" vertex="1">
          <mxGeometry x="515" y="260" width="110" height="30" as="geometry" />
        </mxCell>
        <mxCell id="J-Y7H0dTVJ3gCG0rteRI-245" value="" style="endArrow=none;html=1;rounded=0;" parent="7026571954dc6520-1" edge="1">
          <mxGeometry width="50" height="50" relative="1" as="geometry">
            <mxPoint x="155" y="2250" as="sourcePoint" />
            <mxPoint x="1055" y="2250" as="targetPoint" />
          </mxGeometry>
        </mxCell>
        <mxCell id="J-Y7H0dTVJ3gCG0rteRI-257" value="Declaracion de Privacidad" style="text;html=1;align=center;verticalAlign=middle;whiteSpace=wrap;rounded=0;" parent="7026571954dc6520-1" vertex="1">
          <mxGeometry x="860" y="2290" width="150" height="30" as="geometry" />
        </mxCell>
        <mxCell id="HXBTEdCZuYkMqVr9jufI-1" value="LIGA DEPORTIVA CANTONAL DE BIBLIAN" style="text;html=1;align=center;verticalAlign=middle;whiteSpace=wrap;rounded=0;" parent="7026571954dc6520-1" vertex="1">
          <mxGeometry x="80" y="140" width="140" height="30" as="geometry" />
        </mxCell>
        <mxCell id="HXBTEdCZuYkMqVr9jufI-3" value="" style="line;strokeWidth=1;html=1;" parent="7026571954dc6520-1" vertex="1">
          <mxGeometry x="6" y="455" width="134" height="10" as="geometry" />
        </mxCell>
        <mxCell id="HXBTEdCZuYkMqVr9jufI-4" value="" style="line;strokeWidth=1;html=1;" parent="7026571954dc6520-1" vertex="1">
          <mxGeometry x="8" y="575" width="134" height="10" as="geometry" />
        </mxCell>
        <mxCell id="HXBTEdCZuYkMqVr9jufI-5" value="" style="verticalLabelPosition=bottom;shadow=0;dashed=0;align=center;html=1;verticalAlign=top;strokeWidth=1;shape=mxgraph.mockup.graphics.simpleIcon;strokeColor=#999999;" parent="7026571954dc6520-1" vertex="1">
          <mxGeometry x="20" y="445" width="15" height="10" as="geometry" />
        </mxCell>
        <mxCell id="HXBTEdCZuYkMqVr9jufI-6" value="" style="verticalLabelPosition=bottom;shadow=0;dashed=0;align=center;html=1;verticalAlign=top;strokeWidth=1;shape=mxgraph.mockup.graphics.simpleIcon;strokeColor=#999999;" parent="7026571954dc6520-1" vertex="1">
          <mxGeometry x="20" y="565" width="15" height="10" as="geometry" />
        </mxCell>
        <mxCell id="HXBTEdCZuYkMqVr9jufI-7" value="EQUIPO B" style="text;html=1;align=center;verticalAlign=middle;whiteSpace=wrap;rounded=0;" parent="7026571954dc6520-1" vertex="1">
          <mxGeometry x="32.5" y="610" width="65" height="30" as="geometry" />
        </mxCell>
        <mxCell id="HXBTEdCZuYkMqVr9jufI-12" value="EQUIPO C" style="text;html=1;align=center;verticalAlign=middle;whiteSpace=wrap;rounded=0;" parent="7026571954dc6520-1" vertex="1">
          <mxGeometry x="32.5" y="635" width="65" height="30" as="geometry" />
        </mxCell>
        <mxCell id="HXBTEdCZuYkMqVr9jufI-13" value="EQUIPO D" style="text;html=1;align=center;verticalAlign=middle;whiteSpace=wrap;rounded=0;" parent="7026571954dc6520-1" vertex="1">
          <mxGeometry x="35" y="660" width="65" height="30" as="geometry" />
        </mxCell>
        <mxCell id="HXBTEdCZuYkMqVr9jufI-14" value="EQUIPO E" style="text;html=1;align=center;verticalAlign=middle;whiteSpace=wrap;rounded=0;" parent="7026571954dc6520-1" vertex="1">
          <mxGeometry x="35" y="685" width="65" height="30" as="geometry" />
        </mxCell>
        <mxCell id="HXBTEdCZuYkMqVr9jufI-15" value="EQUIPO F" style="text;html=1;align=center;verticalAlign=middle;whiteSpace=wrap;rounded=0;" parent="7026571954dc6520-1" vertex="1">
          <mxGeometry x="35" y="710" width="60" height="30" as="geometry" />
        </mxCell>
        <mxCell id="HXBTEdCZuYkMqVr9jufI-16" value="EQUIPO G" style="text;html=1;align=center;verticalAlign=middle;whiteSpace=wrap;rounded=0;" parent="7026571954dc6520-1" vertex="1">
          <mxGeometry x="35" y="735" width="65" height="30" as="geometry" />
        </mxCell>
        <mxCell id="HXBTEdCZuYkMqVr9jufI-17" value="EQUIPO H" style="text;html=1;align=center;verticalAlign=middle;whiteSpace=wrap;rounded=0;" parent="7026571954dc6520-1" vertex="1">
          <mxGeometry x="35" y="760" width="65" height="30" as="geometry" />
        </mxCell>
        <mxCell id="HXBTEdCZuYkMqVr9jufI-22" value="RESERVA DE&lt;div&gt;CANCHAS&amp;nbsp;&lt;/div&gt;" style="text;html=1;align=center;verticalAlign=middle;whiteSpace=wrap;rounded=0;" parent="7026571954dc6520-1" vertex="1">
          <mxGeometry x="37" y="260" width="93" height="30" as="geometry" />
        </mxCell>
        <mxCell id="HXBTEdCZuYkMqVr9jufI-23" value="" style="line;strokeWidth=1;html=1;" parent="7026571954dc6520-1" vertex="1">
          <mxGeometry x="8" y="290" width="134" height="10" as="geometry" />
        </mxCell>
        <mxCell id="HXBTEdCZuYkMqVr9jufI-24" value="" style="verticalLabelPosition=bottom;shadow=0;dashed=0;align=center;html=1;verticalAlign=top;strokeWidth=1;shape=mxgraph.mockup.graphics.simpleIcon;strokeColor=#999999;" parent="7026571954dc6520-1" vertex="1">
          <mxGeometry x="20" y="270" width="15" height="10" as="geometry" />
        </mxCell>
        <mxCell id="HXBTEdCZuYkMqVr9jufI-25" value="LLENAR FORMULARIO" style="text;html=1;align=center;verticalAlign=middle;whiteSpace=wrap;rounded=0;" parent="7026571954dc6520-1" vertex="1">
          <mxGeometry x="35" y="300" width="60" height="30" as="geometry" />
        </mxCell>
        <mxCell id="5OzxzXaVveCsNpC4uV2Q-2" value="CONTACTARSE A WATSAP" style="text;html=1;align=center;verticalAlign=middle;whiteSpace=wrap;rounded=0;" vertex="1" parent="7026571954dc6520-1">
          <mxGeometry x="37.5" y="340" width="60" height="30" as="geometry" />
        </mxCell>
        <mxCell id="5OzxzXaVveCsNpC4uV2Q-4" value="NOTICIAS" style="strokeWidth=1;shadow=0;dashed=0;align=center;html=1;shape=mxgraph.mockup.forms.uRect;fontSize=17;fontColor=#666666;align=left;spacingLeft=5;strokeColor=#666666;" vertex="1" parent="7026571954dc6520-1">
          <mxGeometry x="630" y="260" width="110" height="30" as="geometry" />
        </mxCell>
        <mxCell id="5OzxzXaVveCsNpC4uV2Q-5" value="INFANTIL" style="text;html=1;align=center;verticalAlign=middle;whiteSpace=wrap;rounded=0;" vertex="1" parent="7026571954dc6520-1">
          <mxGeometry x="35" y="790" width="60" height="30" as="geometry" />
        </mxCell>
        <mxCell id="5OzxzXaVveCsNpC4uV2Q-6" value="EQUIPO A" style="text;html=1;align=center;verticalAlign=middle;whiteSpace=wrap;rounded=0;" vertex="1" parent="7026571954dc6520-1">
          <mxGeometry x="35" y="820" width="60" height="30" as="geometry" />
        </mxCell>
        <mxCell id="5OzxzXaVveCsNpC4uV2Q-7" value="" style="line;strokeWidth=1;html=1;" vertex="1" parent="7026571954dc6520-1">
          <mxGeometry x="8" y="810" width="134" height="10" as="geometry" />
        </mxCell>
        <mxCell id="5OzxzXaVveCsNpC4uV2Q-8" value="" style="verticalLabelPosition=bottom;shadow=0;dashed=0;align=center;html=1;verticalAlign=top;strokeWidth=1;shape=mxgraph.mockup.graphics.simpleIcon;strokeColor=#999999;" vertex="1" parent="7026571954dc6520-1">
          <mxGeometry x="20" y="800" width="15" height="10" as="geometry" />
        </mxCell>
        <mxCell id="5OzxzXaVveCsNpC4uV2Q-9" value="EQUIPO B" style="text;html=1;align=center;verticalAlign=middle;whiteSpace=wrap;rounded=0;" vertex="1" parent="7026571954dc6520-1">
          <mxGeometry x="32.5" y="845" width="65" height="30" as="geometry" />
        </mxCell>
        <mxCell id="5OzxzXaVveCsNpC4uV2Q-10" value="EQUIPO C" style="text;html=1;align=center;verticalAlign=middle;whiteSpace=wrap;rounded=0;" vertex="1" parent="7026571954dc6520-1">
          <mxGeometry x="32.5" y="870" width="65" height="30" as="geometry" />
        </mxCell>
        <mxCell id="5OzxzXaVveCsNpC4uV2Q-11" value="EQUIPO D" style="text;html=1;align=center;verticalAlign=middle;whiteSpace=wrap;rounded=0;" vertex="1" parent="7026571954dc6520-1">
          <mxGeometry x="35" y="895" width="65" height="30" as="geometry" />
        </mxCell>
        <mxCell id="5OzxzXaVveCsNpC4uV2Q-12" value="EQUIPO E" style="text;html=1;align=center;verticalAlign=middle;whiteSpace=wrap;rounded=0;" vertex="1" parent="7026571954dc6520-1">
          <mxGeometry x="35" y="920" width="65" height="30" as="geometry" />
        </mxCell>
        <mxCell id="5OzxzXaVveCsNpC4uV2Q-13" value="EQUIPO F" style="text;html=1;align=center;verticalAlign=middle;whiteSpace=wrap;rounded=0;" vertex="1" parent="7026571954dc6520-1">
          <mxGeometry x="35" y="945" width="60" height="30" as="geometry" />
        </mxCell>
        <mxCell id="5OzxzXaVveCsNpC4uV2Q-14" value="EQUIPO G" style="text;html=1;align=center;verticalAlign=middle;whiteSpace=wrap;rounded=0;" vertex="1" parent="7026571954dc6520-1">
          <mxGeometry x="35" y="970" width="65" height="30" as="geometry" />
        </mxCell>
        <mxCell id="5OzxzXaVveCsNpC4uV2Q-15" value="EQUIPO H" style="text;html=1;align=center;verticalAlign=middle;whiteSpace=wrap;rounded=0;" vertex="1" parent="7026571954dc6520-1">
          <mxGeometry x="35" y="995" width="65" height="30" as="geometry" />
        </mxCell>
        <mxCell id="5OzxzXaVveCsNpC4uV2Q-28" value="" style="swimlane;shape=mxgraph.bootstrap.anchor;strokeColor=none;fillColor=none;fontColor=#0085FC;fontStyle=0;childLayout=stackLayout;horizontal=0;startSize=0;horizontalStack=1;resizeParent=1;resizeParentMax=0;resizeLast=0;collapsible=0;marginBottom=0;whiteSpace=wrap;html=1;" vertex="1" parent="1">
          <mxGeometry x="260" y="330" width="80" height="30" as="geometry" />
        </mxCell>
        <mxCell id="5OzxzXaVveCsNpC4uV2Q-29" value="&lt;font color=&quot;#8c8c8c&quot;&gt;25oct&lt;/font&gt;" style="text;strokeColor=inherit;align=center;verticalAlign=middle;spacingLeft=10;spacingRight=10;overflow=hidden;points=[[0,0.5],[1,0.5]];portConstraint=eastwest;rotatable=0;whiteSpace=wrap;html=1;shape=mxgraph.bootstrap.leftButton;rSize=5;fillColor=inherit;fontColor=inherit;fontSize=14;" vertex="1" parent="5OzxzXaVveCsNpC4uV2Q-28">
          <mxGeometry width="80" height="30" as="geometry" />
        </mxCell>
        <mxCell id="5OzxzXaVveCsNpC4uV2Q-33" value="29oct" style="text;strokeColor=none;align=center;verticalAlign=middle;spacingLeft=10;spacingRight=10;overflow=hidden;points=[[0,0.5],[1,0.5]];portConstraint=eastwest;rotatable=0;whiteSpace=wrap;html=1;shape=mxgraph.bootstrap.rightButton;rSize=5;fillColor=inherit;fontColor=#7D868C;fontSize=14;" vertex="1" parent="1">
          <mxGeometry x="640" y="330" width="80" height="30" as="geometry" />
        </mxCell>
        <mxCell id="5OzxzXaVveCsNpC4uV2Q-34" value="30oct" style="text;strokeColor=none;align=center;verticalAlign=middle;spacingLeft=10;spacingRight=10;overflow=hidden;points=[[0,0.5],[1,0.5]];portConstraint=eastwest;rotatable=0;whiteSpace=wrap;html=1;shape=mxgraph.bootstrap.rightButton;rSize=5;fillColor=inherit;fontColor=#7D868C;fontSize=14;" vertex="1" parent="1">
          <mxGeometry x="720" y="330" width="80" height="30" as="geometry" />
        </mxCell>
        <mxCell id="5OzxzXaVveCsNpC4uV2Q-36" value="" style="triangle;whiteSpace=wrap;html=1;dashed=0;direction=south;rotation=-90;" vertex="1" parent="1">
          <mxGeometry x="810" y="337.5" width="20" height="15" as="geometry" />
        </mxCell>
        <mxCell id="5OzxzXaVveCsNpC4uV2Q-37" value="" style="triangle;whiteSpace=wrap;html=1;dashed=0;direction=south;rotation=90;" vertex="1" parent="1">
          <mxGeometry x="190" y="337.5" width="20" height="15" as="geometry" />
        </mxCell>
        <mxCell id="5OzxzXaVveCsNpC4uV2Q-32" value="28oct" style="text;strokeColor=none;align=center;verticalAlign=middle;spacingLeft=10;spacingRight=10;overflow=hidden;points=[[0,0.5],[1,0.5]];portConstraint=eastwest;rotatable=0;whiteSpace=wrap;html=1;shape=mxgraph.bootstrap.rightButton;rSize=5;fillColor=inherit;fontColor=#7D868C;fontSize=14;" vertex="1" parent="1">
          <mxGeometry x="540" y="330" width="80" height="30" as="geometry" />
        </mxCell>
        <mxCell id="5OzxzXaVveCsNpC4uV2Q-31" value="&lt;font style=&quot;font-size: 13px;&quot;&gt;27oct&lt;/font&gt;" style="text;strokeColor=none;align=center;verticalAlign=middle;spacingLeft=10;spacingRight=10;overflow=hidden;points=[[0,0.5],[1,0.5]];portConstraint=eastwest;rotatable=0;whiteSpace=wrap;html=1;rSize=5;fillColor=inherit;fontColor=inherit;fontSize=14;" vertex="1" parent="1">
          <mxGeometry x="460" y="330" width="60" height="30" as="geometry" />
        </mxCell>
        <mxCell id="5OzxzXaVveCsNpC4uV2Q-30" value="&lt;font color=&quot;#787878&quot;&gt;26oct&lt;/font&gt;" style="text;strokeColor=none;align=center;verticalAlign=middle;spacingLeft=10;spacingRight=10;overflow=hidden;points=[[0,0.5],[1,0.5]];portConstraint=eastwest;rotatable=0;whiteSpace=wrap;html=1;rSize=5;fillColor=inherit;fontColor=inherit;fontSize=14;" vertex="1" parent="1">
          <mxGeometry x="370" y="330" width="60" height="30" as="geometry" />
        </mxCell>
        <mxCell id="5OzxzXaVveCsNpC4uV2Q-39" value="MASTER" style="text;html=1;align=center;verticalAlign=middle;whiteSpace=wrap;rounded=0;" vertex="1" parent="1">
          <mxGeometry x="200" y="370" width="60" height="30" as="geometry" />
        </mxCell>
        <mxCell id="5OzxzXaVveCsNpC4uV2Q-41" value="EQUIPO A" style="text;html=1;align=center;verticalAlign=middle;whiteSpace=wrap;rounded=0;" vertex="1" parent="1">
          <mxGeometry x="260" y="420" width="60" height="30" as="geometry" />
        </mxCell>
        <mxCell id="5OzxzXaVveCsNpC4uV2Q-42" value="EQUIPO D" style="text;html=1;align=center;verticalAlign=middle;whiteSpace=wrap;rounded=0;" vertex="1" parent="1">
          <mxGeometry x="680" y="420" width="65" height="30" as="geometry" />
        </mxCell>
        <mxCell id="5OzxzXaVveCsNpC4uV2Q-43" value="&lt;font style=&quot;font-size: 13px;&quot;&gt;&lt;b style=&quot;&quot;&gt;0-0&lt;/b&gt;&lt;/font&gt;" style="text;html=1;align=center;verticalAlign=middle;whiteSpace=wrap;rounded=0;" vertex="1" parent="1">
          <mxGeometry x="475" y="420" width="65" height="30" as="geometry" />
        </mxCell>
        <mxCell id="5OzxzXaVveCsNpC4uV2Q-45" value="EQUIPO A" style="text;html=1;align=center;verticalAlign=middle;whiteSpace=wrap;rounded=0;" vertex="1" parent="1">
          <mxGeometry x="260" y="450" width="60" height="30" as="geometry" />
        </mxCell>
        <mxCell id="5OzxzXaVveCsNpC4uV2Q-46" value="EQUIPO D" style="text;html=1;align=center;verticalAlign=middle;whiteSpace=wrap;rounded=0;" vertex="1" parent="1">
          <mxGeometry x="680" y="450" width="65" height="30" as="geometry" />
        </mxCell>
        <mxCell id="5OzxzXaVveCsNpC4uV2Q-47" value="&lt;font style=&quot;font-size: 13px;&quot;&gt;&lt;b style=&quot;&quot;&gt;2-1&lt;/b&gt;&lt;/font&gt;" style="text;html=1;align=center;verticalAlign=middle;whiteSpace=wrap;rounded=0;" vertex="1" parent="1">
          <mxGeometry x="475" y="450" width="65" height="30" as="geometry" />
        </mxCell>
        <mxCell id="5OzxzXaVveCsNpC4uV2Q-49" value="EQUIPO A" style="text;html=1;align=center;verticalAlign=middle;whiteSpace=wrap;rounded=0;" vertex="1" parent="1">
          <mxGeometry x="260" y="480" width="60" height="30" as="geometry" />
        </mxCell>
        <mxCell id="5OzxzXaVveCsNpC4uV2Q-50" value="EQUIPO D" style="text;html=1;align=center;verticalAlign=middle;whiteSpace=wrap;rounded=0;" vertex="1" parent="1">
          <mxGeometry x="680" y="480" width="65" height="30" as="geometry" />
        </mxCell>
        <mxCell id="5OzxzXaVveCsNpC4uV2Q-51" value="&lt;font style=&quot;font-size: 13px;&quot;&gt;&lt;b style=&quot;&quot;&gt;1-1&lt;/b&gt;&lt;/font&gt;" style="text;html=1;align=center;verticalAlign=middle;whiteSpace=wrap;rounded=0;" vertex="1" parent="1">
          <mxGeometry x="475" y="480" width="65" height="30" as="geometry" />
        </mxCell>
        <mxCell id="5OzxzXaVveCsNpC4uV2Q-53" value="EQUIPO A" style="text;html=1;align=center;verticalAlign=middle;whiteSpace=wrap;rounded=0;" vertex="1" parent="1">
          <mxGeometry x="260" y="510" width="60" height="30" as="geometry" />
        </mxCell>
        <mxCell id="5OzxzXaVveCsNpC4uV2Q-54" value="EQUIPO D" style="text;html=1;align=center;verticalAlign=middle;whiteSpace=wrap;rounded=0;" vertex="1" parent="1">
          <mxGeometry x="680" y="510" width="65" height="30" as="geometry" />
        </mxCell>
        <mxCell id="5OzxzXaVveCsNpC4uV2Q-55" value="&lt;font style=&quot;font-size: 13px;&quot;&gt;&lt;b style=&quot;&quot;&gt;0-0&lt;/b&gt;&lt;/font&gt;" style="text;html=1;align=center;verticalAlign=middle;whiteSpace=wrap;rounded=0;" vertex="1" parent="1">
          <mxGeometry x="475" y="510" width="65" height="30" as="geometry" />
        </mxCell>
        <mxCell id="5OzxzXaVveCsNpC4uV2Q-57" value="EQUIPO A" style="text;html=1;align=center;verticalAlign=middle;whiteSpace=wrap;rounded=0;" vertex="1" parent="1">
          <mxGeometry x="260" y="540" width="60" height="30" as="geometry" />
        </mxCell>
        <mxCell id="5OzxzXaVveCsNpC4uV2Q-58" value="EQUIPO D" style="text;html=1;align=center;verticalAlign=middle;whiteSpace=wrap;rounded=0;" vertex="1" parent="1">
          <mxGeometry x="680" y="540" width="65" height="30" as="geometry" />
        </mxCell>
        <mxCell id="5OzxzXaVveCsNpC4uV2Q-59" value="&lt;font style=&quot;font-size: 13px;&quot;&gt;&lt;b style=&quot;&quot;&gt;3-2&lt;/b&gt;&lt;/font&gt;" style="text;html=1;align=center;verticalAlign=middle;whiteSpace=wrap;rounded=0;" vertex="1" parent="1">
          <mxGeometry x="475" y="540" width="65" height="30" as="geometry" />
        </mxCell>
        <mxCell id="5OzxzXaVveCsNpC4uV2Q-61" value="JUNIOR" style="text;html=1;align=center;verticalAlign=middle;whiteSpace=wrap;rounded=0;" vertex="1" parent="1">
          <mxGeometry x="210" y="590" width="60" height="30" as="geometry" />
        </mxCell>
        <mxCell id="5OzxzXaVveCsNpC4uV2Q-62" value="" style="line;strokeWidth=2;html=1;" vertex="1" parent="1">
          <mxGeometry x="195" y="400" width="705" height="10" as="geometry" />
        </mxCell>
        <mxCell id="5OzxzXaVveCsNpC4uV2Q-63" value="" style="line;strokeWidth=2;html=1;" vertex="1" parent="1">
          <mxGeometry x="195" y="620" width="705" height="10" as="geometry" />
        </mxCell>
        <mxCell id="5OzxzXaVveCsNpC4uV2Q-100" value="" style="verticalLabelPosition=bottom;shadow=0;dashed=0;align=center;html=1;verticalAlign=top;strokeWidth=1;shape=mxgraph.mockup.graphics.simpleIcon;strokeColor=#999999;" vertex="1" parent="1">
          <mxGeometry x="232.5" y="430" width="15" height="10" as="geometry" />
        </mxCell>
        <mxCell id="5OzxzXaVveCsNpC4uV2Q-101" value="" style="verticalLabelPosition=bottom;shadow=0;dashed=0;align=center;html=1;verticalAlign=top;strokeWidth=1;shape=mxgraph.mockup.graphics.simpleIcon;strokeColor=#999999;" vertex="1" parent="1">
          <mxGeometry x="232.5" y="460" width="15" height="10" as="geometry" />
        </mxCell>
        <mxCell id="5OzxzXaVveCsNpC4uV2Q-102" value="" style="verticalLabelPosition=bottom;shadow=0;dashed=0;align=center;html=1;verticalAlign=top;strokeWidth=1;shape=mxgraph.mockup.graphics.simpleIcon;strokeColor=#999999;" vertex="1" parent="1">
          <mxGeometry x="232.5" y="490" width="15" height="10" as="geometry" />
        </mxCell>
        <mxCell id="5OzxzXaVveCsNpC4uV2Q-103" value="" style="verticalLabelPosition=bottom;shadow=0;dashed=0;align=center;html=1;verticalAlign=top;strokeWidth=1;shape=mxgraph.mockup.graphics.simpleIcon;strokeColor=#999999;" vertex="1" parent="1">
          <mxGeometry x="232.5" y="520" width="15" height="10" as="geometry" />
        </mxCell>
        <mxCell id="5OzxzXaVveCsNpC4uV2Q-104" value="" style="verticalLabelPosition=bottom;shadow=0;dashed=0;align=center;html=1;verticalAlign=top;strokeWidth=1;shape=mxgraph.mockup.graphics.simpleIcon;strokeColor=#999999;" vertex="1" parent="1">
          <mxGeometry x="232.5" y="550" width="15" height="10" as="geometry" />
        </mxCell>
        <mxCell id="5OzxzXaVveCsNpC4uV2Q-106" value="" style="verticalLabelPosition=bottom;shadow=0;dashed=0;align=center;html=1;verticalAlign=top;strokeWidth=1;shape=mxgraph.mockup.graphics.simpleIcon;strokeColor=#999999;" vertex="1" parent="1">
          <mxGeometry x="650" y="430" width="15" height="10" as="geometry" />
        </mxCell>
        <mxCell id="5OzxzXaVveCsNpC4uV2Q-107" value="" style="verticalLabelPosition=bottom;shadow=0;dashed=0;align=center;html=1;verticalAlign=top;strokeWidth=1;shape=mxgraph.mockup.graphics.simpleIcon;strokeColor=#999999;" vertex="1" parent="1">
          <mxGeometry x="650" y="460" width="15" height="10" as="geometry" />
        </mxCell>
        <mxCell id="5OzxzXaVveCsNpC4uV2Q-108" value="" style="verticalLabelPosition=bottom;shadow=0;dashed=0;align=center;html=1;verticalAlign=top;strokeWidth=1;shape=mxgraph.mockup.graphics.simpleIcon;strokeColor=#999999;" vertex="1" parent="1">
          <mxGeometry x="650" y="490" width="15" height="10" as="geometry" />
        </mxCell>
        <mxCell id="5OzxzXaVveCsNpC4uV2Q-109" value="" style="verticalLabelPosition=bottom;shadow=0;dashed=0;align=center;html=1;verticalAlign=top;strokeWidth=1;shape=mxgraph.mockup.graphics.simpleIcon;strokeColor=#999999;" vertex="1" parent="1">
          <mxGeometry x="650" y="520" width="15" height="10" as="geometry" />
        </mxCell>
        <mxCell id="5OzxzXaVveCsNpC4uV2Q-110" value="" style="verticalLabelPosition=bottom;shadow=0;dashed=0;align=center;html=1;verticalAlign=top;strokeWidth=1;shape=mxgraph.mockup.graphics.simpleIcon;strokeColor=#999999;" vertex="1" parent="1">
          <mxGeometry x="650" y="550" width="15" height="10" as="geometry" />
        </mxCell>
        <mxCell id="5OzxzXaVveCsNpC4uV2Q-143" value="INFANTIL" style="text;html=1;align=center;verticalAlign=middle;whiteSpace=wrap;rounded=0;" vertex="1" parent="1">
          <mxGeometry x="205" y="820" width="60" height="30" as="geometry" />
        </mxCell>
        <mxCell id="5OzxzXaVveCsNpC4uV2Q-144" value="" style="line;strokeWidth=2;html=1;" vertex="1" parent="1">
          <mxGeometry x="190" y="850" width="705" height="10" as="geometry" />
        </mxCell>
        <mxCell id="5OzxzXaVveCsNpC4uV2Q-175" value="&lt;h1 style=&quot;margin-top: 0px;&quot;&gt;Heading&lt;/h1&gt;&lt;p&gt;Lorem ipsum dolor sit amet, consectetur adipisicing elit, sed do eiusmod tempor incididunt ut labore et dolore magna aliqua.&lt;/p&gt;" style="text;html=1;whiteSpace=wrap;overflow=hidden;rounded=0;" vertex="1" parent="1">
          <mxGeometry x="195" y="1060" width="280" height="120" as="geometry" />
        </mxCell>
        <mxCell id="5OzxzXaVveCsNpC4uV2Q-176" value="" style="verticalLabelPosition=bottom;shadow=0;dashed=0;align=center;html=1;verticalAlign=top;strokeWidth=1;shape=mxgraph.mockup.graphics.simpleIcon;strokeColor=#999999;" vertex="1" parent="1">
          <mxGeometry x="195" y="1160" width="50" height="50" as="geometry" />
        </mxCell>
        <mxCell id="5OzxzXaVveCsNpC4uV2Q-177" value="" style="verticalLabelPosition=bottom;shadow=0;dashed=0;align=center;html=1;verticalAlign=top;strokeWidth=1;shape=mxgraph.mockup.graphics.simpleIcon;strokeColor=#999999;" vertex="1" parent="1">
          <mxGeometry x="255" y="1160" width="50" height="50" as="geometry" />
        </mxCell>
        <mxCell id="5OzxzXaVveCsNpC4uV2Q-178" value="Publicidad" style="text;html=1;align=center;verticalAlign=middle;whiteSpace=wrap;rounded=0;" vertex="1" parent="1">
          <mxGeometry x="720" y="1070" width="65" height="30" as="geometry" />
        </mxCell>
        <mxCell id="5OzxzXaVveCsNpC4uV2Q-179" value="Configuracion de cookies" style="text;html=1;align=center;verticalAlign=middle;whiteSpace=wrap;rounded=0;" vertex="1" parent="1">
          <mxGeometry x="720" y="1090" width="145" height="30" as="geometry" />
        </mxCell>
        <mxCell id="5OzxzXaVveCsNpC4uV2Q-180" value="Canales" style="text;html=1;align=center;verticalAlign=middle;whiteSpace=wrap;rounded=0;" vertex="1" parent="1">
          <mxGeometry x="720" y="1110" width="55" height="30" as="geometry" />
        </mxCell>
        <mxCell id="5OzxzXaVveCsNpC4uV2Q-181" value="Jugadores" style="text;html=1;align=center;verticalAlign=middle;whiteSpace=wrap;rounded=0;" vertex="1" parent="1">
          <mxGeometry x="720" y="1130" width="65" height="30" as="geometry" />
        </mxCell>
        <mxCell id="5OzxzXaVveCsNpC4uV2Q-182" value="Sello Editorial" style="text;html=1;align=center;verticalAlign=middle;whiteSpace=wrap;rounded=0;" vertex="1" parent="1">
          <mxGeometry x="720" y="1150" width="85" height="30" as="geometry" />
        </mxCell>
        <mxCell id="5OzxzXaVveCsNpC4uV2Q-183" value="Aviso Legal" style="text;html=1;align=center;verticalAlign=middle;whiteSpace=wrap;rounded=0;" vertex="1" parent="1">
          <mxGeometry x="895" y="1070" width="70" height="30" as="geometry" />
        </mxCell>
        <mxCell id="5OzxzXaVveCsNpC4uV2Q-184" value="Declaracion de Privacidad" style="text;html=1;align=center;verticalAlign=middle;whiteSpace=wrap;rounded=0;" vertex="1" parent="1">
          <mxGeometry x="895" y="1090" width="150" height="30" as="geometry" />
        </mxCell>
        <mxCell id="5OzxzXaVveCsNpC4uV2Q-185" value="Trabajos" style="text;html=1;align=center;verticalAlign=middle;whiteSpace=wrap;rounded=0;" vertex="1" parent="1">
          <mxGeometry x="895" y="1110" width="50" height="30" as="geometry" />
        </mxCell>
        <mxCell id="5OzxzXaVveCsNpC4uV2Q-186" value="Condiciones de Uso" style="text;html=1;align=center;verticalAlign=middle;whiteSpace=wrap;rounded=0;" vertex="1" parent="1">
          <mxGeometry x="895" y="1130" width="115" height="30" as="geometry" />
        </mxCell>
        <mxCell id="5OzxzXaVveCsNpC4uV2Q-187" value="Trabajos" style="text;html=1;align=center;verticalAlign=middle;whiteSpace=wrap;rounded=0;" vertex="1" parent="1">
          <mxGeometry x="900" y="1150" width="50" height="30" as="geometry" />
        </mxCell>
        <mxCell id="5OzxzXaVveCsNpC4uV2Q-188" value="Contactos" style="text;html=1;align=center;verticalAlign=middle;whiteSpace=wrap;rounded=0;" vertex="1" parent="1">
          <mxGeometry x="900" y="1170" width="55" height="30" as="geometry" />
        </mxCell>
        <mxCell id="5OzxzXaVveCsNpC4uV2Q-189" value="" style="verticalLabelPosition=bottom;verticalAlign=top;html=1;shape=mxgraph.flowchart.or;" vertex="1" parent="1">
          <mxGeometry x="905" y="1220" width="30" height="30" as="geometry" />
        </mxCell>
        <mxCell id="5OzxzXaVveCsNpC4uV2Q-190" value="" style="line;strokeWidth=2;html=1;" vertex="1" parent="1">
          <mxGeometry x="225" y="1250" width="800" height="10" as="geometry" />
        </mxCell>
        <mxCell id="5OzxzXaVveCsNpC4uV2Q-191" value="&lt;span style=&quot;text-align: left;&quot;&gt;@ Lorem ipsum&amp;nbsp;&lt;/span&gt;" style="text;html=1;align=center;verticalAlign=middle;whiteSpace=wrap;rounded=0;" vertex="1" parent="1">
          <mxGeometry x="220" y="1270" width="95" height="30" as="geometry" />
        </mxCell>
        <mxCell id="5OzxzXaVveCsNpC4uV2Q-192" value="" style="shape=table;startSize=0;container=1;collapsible=1;childLayout=tableLayout;fixedRows=1;rowLines=0;fontStyle=0;align=center;resizeLast=1;strokeColor=none;fillColor=none;collapsible=0;" vertex="1" parent="1">
          <mxGeometry x="835" y="1260" width="180" height="30" as="geometry" />
        </mxCell>
        <mxCell id="5OzxzXaVveCsNpC4uV2Q-193" value="" style="shape=tableRow;horizontal=0;startSize=0;swimlaneHead=0;swimlaneBody=0;fillColor=none;collapsible=0;dropTarget=0;points=[[0,0.5],[1,0.5]];portConstraint=eastwest;top=0;left=0;right=0;bottom=1;" vertex="1" parent="5OzxzXaVveCsNpC4uV2Q-192">
          <mxGeometry width="180" height="30" as="geometry" />
        </mxCell>
        <mxCell id="5OzxzXaVveCsNpC4uV2Q-194" value="PK" style="shape=partialRectangle;connectable=0;fillColor=none;top=0;left=0;bottom=0;right=0;fontStyle=1;overflow=hidden;whiteSpace=wrap;html=1;" vertex="1" parent="5OzxzXaVveCsNpC4uV2Q-193">
          <mxGeometry width="30" height="30" as="geometry">
            <mxRectangle width="30" height="30" as="alternateBounds" />
          </mxGeometry>
        </mxCell>
        <mxCell id="5OzxzXaVveCsNpC4uV2Q-195" value="UniqueID" style="shape=partialRectangle;connectable=0;fillColor=none;top=0;left=0;bottom=0;right=0;align=left;spacingLeft=6;fontStyle=5;overflow=hidden;whiteSpace=wrap;html=1;" vertex="1" parent="5OzxzXaVveCsNpC4uV2Q-193">
          <mxGeometry x="30" width="150" height="30" as="geometry">
            <mxRectangle width="150" height="30" as="alternateBounds" />
          </mxGeometry>
        </mxCell>
        <mxCell id="5OzxzXaVveCsNpC4uV2Q-196" value="" style="endArrow=none;html=1;rounded=0;" edge="1" parent="1">
          <mxGeometry width="50" height="50" relative="1" as="geometry">
            <mxPoint x="175" y="1050" as="sourcePoint" />
            <mxPoint x="1075" y="1050" as="targetPoint" />
          </mxGeometry>
        </mxCell>
        <mxCell id="5OzxzXaVveCsNpC4uV2Q-198" value="EQUIPO A" style="text;html=1;align=center;verticalAlign=middle;whiteSpace=wrap;rounded=0;" vertex="1" parent="1">
          <mxGeometry x="260" y="650" width="60" height="30" as="geometry" />
        </mxCell>
        <mxCell id="5OzxzXaVveCsNpC4uV2Q-199" value="EQUIPO D" style="text;html=1;align=center;verticalAlign=middle;whiteSpace=wrap;rounded=0;" vertex="1" parent="1">
          <mxGeometry x="680" y="650" width="65" height="30" as="geometry" />
        </mxCell>
        <mxCell id="5OzxzXaVveCsNpC4uV2Q-200" value="&lt;font style=&quot;font-size: 13px;&quot;&gt;&lt;b style=&quot;&quot;&gt;0-0&lt;/b&gt;&lt;/font&gt;" style="text;html=1;align=center;verticalAlign=middle;whiteSpace=wrap;rounded=0;" vertex="1" parent="1">
          <mxGeometry x="475" y="650" width="65" height="30" as="geometry" />
        </mxCell>
        <mxCell id="5OzxzXaVveCsNpC4uV2Q-201" value="EQUIPO A" style="text;html=1;align=center;verticalAlign=middle;whiteSpace=wrap;rounded=0;" vertex="1" parent="1">
          <mxGeometry x="260" y="680" width="60" height="30" as="geometry" />
        </mxCell>
        <mxCell id="5OzxzXaVveCsNpC4uV2Q-202" value="EQUIPO D" style="text;html=1;align=center;verticalAlign=middle;whiteSpace=wrap;rounded=0;" vertex="1" parent="1">
          <mxGeometry x="680" y="680" width="65" height="30" as="geometry" />
        </mxCell>
        <mxCell id="5OzxzXaVveCsNpC4uV2Q-203" value="&lt;font style=&quot;font-size: 13px;&quot;&gt;&lt;b style=&quot;&quot;&gt;2-1&lt;/b&gt;&lt;/font&gt;" style="text;html=1;align=center;verticalAlign=middle;whiteSpace=wrap;rounded=0;" vertex="1" parent="1">
          <mxGeometry x="475" y="680" width="65" height="30" as="geometry" />
        </mxCell>
        <mxCell id="5OzxzXaVveCsNpC4uV2Q-204" value="EQUIPO A" style="text;html=1;align=center;verticalAlign=middle;whiteSpace=wrap;rounded=0;" vertex="1" parent="1">
          <mxGeometry x="260" y="710" width="60" height="30" as="geometry" />
        </mxCell>
        <mxCell id="5OzxzXaVveCsNpC4uV2Q-205" value="EQUIPO D" style="text;html=1;align=center;verticalAlign=middle;whiteSpace=wrap;rounded=0;" vertex="1" parent="1">
          <mxGeometry x="680" y="710" width="65" height="30" as="geometry" />
        </mxCell>
        <mxCell id="5OzxzXaVveCsNpC4uV2Q-206" value="&lt;font style=&quot;font-size: 13px;&quot;&gt;&lt;b style=&quot;&quot;&gt;1-1&lt;/b&gt;&lt;/font&gt;" style="text;html=1;align=center;verticalAlign=middle;whiteSpace=wrap;rounded=0;" vertex="1" parent="1">
          <mxGeometry x="475" y="710" width="65" height="30" as="geometry" />
        </mxCell>
        <mxCell id="5OzxzXaVveCsNpC4uV2Q-207" value="EQUIPO A" style="text;html=1;align=center;verticalAlign=middle;whiteSpace=wrap;rounded=0;" vertex="1" parent="1">
          <mxGeometry x="260" y="740" width="60" height="30" as="geometry" />
        </mxCell>
        <mxCell id="5OzxzXaVveCsNpC4uV2Q-208" value="EQUIPO D" style="text;html=1;align=center;verticalAlign=middle;whiteSpace=wrap;rounded=0;" vertex="1" parent="1">
          <mxGeometry x="680" y="740" width="65" height="30" as="geometry" />
        </mxCell>
        <mxCell id="5OzxzXaVveCsNpC4uV2Q-209" value="&lt;font style=&quot;font-size: 13px;&quot;&gt;&lt;b style=&quot;&quot;&gt;0-0&lt;/b&gt;&lt;/font&gt;" style="text;html=1;align=center;verticalAlign=middle;whiteSpace=wrap;rounded=0;" vertex="1" parent="1">
          <mxGeometry x="475" y="740" width="65" height="30" as="geometry" />
        </mxCell>
        <mxCell id="5OzxzXaVveCsNpC4uV2Q-210" value="EQUIPO A" style="text;html=1;align=center;verticalAlign=middle;whiteSpace=wrap;rounded=0;" vertex="1" parent="1">
          <mxGeometry x="260" y="770" width="60" height="30" as="geometry" />
        </mxCell>
        <mxCell id="5OzxzXaVveCsNpC4uV2Q-211" value="EQUIPO D" style="text;html=1;align=center;verticalAlign=middle;whiteSpace=wrap;rounded=0;" vertex="1" parent="1">
          <mxGeometry x="680" y="770" width="65" height="30" as="geometry" />
        </mxCell>
        <mxCell id="5OzxzXaVveCsNpC4uV2Q-212" value="&lt;font style=&quot;font-size: 13px;&quot;&gt;&lt;b style=&quot;&quot;&gt;3-2&lt;/b&gt;&lt;/font&gt;" style="text;html=1;align=center;verticalAlign=middle;whiteSpace=wrap;rounded=0;" vertex="1" parent="1">
          <mxGeometry x="475" y="770" width="65" height="30" as="geometry" />
        </mxCell>
        <mxCell id="5OzxzXaVveCsNpC4uV2Q-213" value="" style="verticalLabelPosition=bottom;shadow=0;dashed=0;align=center;html=1;verticalAlign=top;strokeWidth=1;shape=mxgraph.mockup.graphics.simpleIcon;strokeColor=#999999;" vertex="1" parent="1">
          <mxGeometry x="232.5" y="660" width="15" height="10" as="geometry" />
        </mxCell>
        <mxCell id="5OzxzXaVveCsNpC4uV2Q-214" value="" style="verticalLabelPosition=bottom;shadow=0;dashed=0;align=center;html=1;verticalAlign=top;strokeWidth=1;shape=mxgraph.mockup.graphics.simpleIcon;strokeColor=#999999;" vertex="1" parent="1">
          <mxGeometry x="232.5" y="690" width="15" height="10" as="geometry" />
        </mxCell>
        <mxCell id="5OzxzXaVveCsNpC4uV2Q-215" value="" style="verticalLabelPosition=bottom;shadow=0;dashed=0;align=center;html=1;verticalAlign=top;strokeWidth=1;shape=mxgraph.mockup.graphics.simpleIcon;strokeColor=#999999;" vertex="1" parent="1">
          <mxGeometry x="232.5" y="720" width="15" height="10" as="geometry" />
        </mxCell>
        <mxCell id="5OzxzXaVveCsNpC4uV2Q-216" value="" style="verticalLabelPosition=bottom;shadow=0;dashed=0;align=center;html=1;verticalAlign=top;strokeWidth=1;shape=mxgraph.mockup.graphics.simpleIcon;strokeColor=#999999;" vertex="1" parent="1">
          <mxGeometry x="232.5" y="750" width="15" height="10" as="geometry" />
        </mxCell>
        <mxCell id="5OzxzXaVveCsNpC4uV2Q-217" value="" style="verticalLabelPosition=bottom;shadow=0;dashed=0;align=center;html=1;verticalAlign=top;strokeWidth=1;shape=mxgraph.mockup.graphics.simpleIcon;strokeColor=#999999;" vertex="1" parent="1">
          <mxGeometry x="232.5" y="780" width="15" height="10" as="geometry" />
        </mxCell>
        <mxCell id="5OzxzXaVveCsNpC4uV2Q-218" value="" style="verticalLabelPosition=bottom;shadow=0;dashed=0;align=center;html=1;verticalAlign=top;strokeWidth=1;shape=mxgraph.mockup.graphics.simpleIcon;strokeColor=#999999;" vertex="1" parent="1">
          <mxGeometry x="650" y="660" width="15" height="10" as="geometry" />
        </mxCell>
        <mxCell id="5OzxzXaVveCsNpC4uV2Q-219" value="" style="verticalLabelPosition=bottom;shadow=0;dashed=0;align=center;html=1;verticalAlign=top;strokeWidth=1;shape=mxgraph.mockup.graphics.simpleIcon;strokeColor=#999999;" vertex="1" parent="1">
          <mxGeometry x="650" y="690" width="15" height="10" as="geometry" />
        </mxCell>
        <mxCell id="5OzxzXaVveCsNpC4uV2Q-220" value="" style="verticalLabelPosition=bottom;shadow=0;dashed=0;align=center;html=1;verticalAlign=top;strokeWidth=1;shape=mxgraph.mockup.graphics.simpleIcon;strokeColor=#999999;" vertex="1" parent="1">
          <mxGeometry x="650" y="720" width="15" height="10" as="geometry" />
        </mxCell>
        <mxCell id="5OzxzXaVveCsNpC4uV2Q-221" value="" style="verticalLabelPosition=bottom;shadow=0;dashed=0;align=center;html=1;verticalAlign=top;strokeWidth=1;shape=mxgraph.mockup.graphics.simpleIcon;strokeColor=#999999;" vertex="1" parent="1">
          <mxGeometry x="650" y="750" width="15" height="10" as="geometry" />
        </mxCell>
        <mxCell id="5OzxzXaVveCsNpC4uV2Q-222" value="" style="verticalLabelPosition=bottom;shadow=0;dashed=0;align=center;html=1;verticalAlign=top;strokeWidth=1;shape=mxgraph.mockup.graphics.simpleIcon;strokeColor=#999999;" vertex="1" parent="1">
          <mxGeometry x="650" y="780" width="15" height="10" as="geometry" />
        </mxCell>
        <mxCell id="5OzxzXaVveCsNpC4uV2Q-223" value="EQUIPO A" style="text;html=1;align=center;verticalAlign=middle;whiteSpace=wrap;rounded=0;" vertex="1" parent="1">
          <mxGeometry x="261.25" y="870" width="60" height="30" as="geometry" />
        </mxCell>
        <mxCell id="5OzxzXaVveCsNpC4uV2Q-224" value="EQUIPO D" style="text;html=1;align=center;verticalAlign=middle;whiteSpace=wrap;rounded=0;" vertex="1" parent="1">
          <mxGeometry x="681.25" y="870" width="65" height="30" as="geometry" />
        </mxCell>
        <mxCell id="5OzxzXaVveCsNpC4uV2Q-225" value="&lt;font style=&quot;font-size: 13px;&quot;&gt;&lt;b style=&quot;&quot;&gt;0-0&lt;/b&gt;&lt;/font&gt;" style="text;html=1;align=center;verticalAlign=middle;whiteSpace=wrap;rounded=0;" vertex="1" parent="1">
          <mxGeometry x="476.25" y="870" width="65" height="30" as="geometry" />
        </mxCell>
        <mxCell id="5OzxzXaVveCsNpC4uV2Q-226" value="EQUIPO A" style="text;html=1;align=center;verticalAlign=middle;whiteSpace=wrap;rounded=0;" vertex="1" parent="1">
          <mxGeometry x="261.25" y="900" width="60" height="30" as="geometry" />
        </mxCell>
        <mxCell id="5OzxzXaVveCsNpC4uV2Q-227" value="EQUIPO D" style="text;html=1;align=center;verticalAlign=middle;whiteSpace=wrap;rounded=0;" vertex="1" parent="1">
          <mxGeometry x="681.25" y="900" width="65" height="30" as="geometry" />
        </mxCell>
        <mxCell id="5OzxzXaVveCsNpC4uV2Q-228" value="&lt;font style=&quot;font-size: 13px;&quot;&gt;&lt;b style=&quot;&quot;&gt;2-1&lt;/b&gt;&lt;/font&gt;" style="text;html=1;align=center;verticalAlign=middle;whiteSpace=wrap;rounded=0;" vertex="1" parent="1">
          <mxGeometry x="476.25" y="900" width="65" height="30" as="geometry" />
        </mxCell>
        <mxCell id="5OzxzXaVveCsNpC4uV2Q-229" value="EQUIPO A" style="text;html=1;align=center;verticalAlign=middle;whiteSpace=wrap;rounded=0;" vertex="1" parent="1">
          <mxGeometry x="261.25" y="930" width="60" height="30" as="geometry" />
        </mxCell>
        <mxCell id="5OzxzXaVveCsNpC4uV2Q-230" value="EQUIPO D" style="text;html=1;align=center;verticalAlign=middle;whiteSpace=wrap;rounded=0;" vertex="1" parent="1">
          <mxGeometry x="681.25" y="930" width="65" height="30" as="geometry" />
        </mxCell>
        <mxCell id="5OzxzXaVveCsNpC4uV2Q-231" value="&lt;font style=&quot;font-size: 13px;&quot;&gt;&lt;b style=&quot;&quot;&gt;1-1&lt;/b&gt;&lt;/font&gt;" style="text;html=1;align=center;verticalAlign=middle;whiteSpace=wrap;rounded=0;" vertex="1" parent="1">
          <mxGeometry x="476.25" y="930" width="65" height="30" as="geometry" />
        </mxCell>
        <mxCell id="5OzxzXaVveCsNpC4uV2Q-232" value="EQUIPO A" style="text;html=1;align=center;verticalAlign=middle;whiteSpace=wrap;rounded=0;" vertex="1" parent="1">
          <mxGeometry x="261.25" y="960" width="60" height="30" as="geometry" />
        </mxCell>
        <mxCell id="5OzxzXaVveCsNpC4uV2Q-233" value="EQUIPO D" style="text;html=1;align=center;verticalAlign=middle;whiteSpace=wrap;rounded=0;" vertex="1" parent="1">
          <mxGeometry x="681.25" y="960" width="65" height="30" as="geometry" />
        </mxCell>
        <mxCell id="5OzxzXaVveCsNpC4uV2Q-234" value="&lt;font style=&quot;font-size: 13px;&quot;&gt;&lt;b style=&quot;&quot;&gt;0-0&lt;/b&gt;&lt;/font&gt;" style="text;html=1;align=center;verticalAlign=middle;whiteSpace=wrap;rounded=0;" vertex="1" parent="1">
          <mxGeometry x="476.25" y="960" width="65" height="30" as="geometry" />
        </mxCell>
        <mxCell id="5OzxzXaVveCsNpC4uV2Q-235" value="EQUIPO A" style="text;html=1;align=center;verticalAlign=middle;whiteSpace=wrap;rounded=0;" vertex="1" parent="1">
          <mxGeometry x="261.25" y="990" width="60" height="30" as="geometry" />
        </mxCell>
        <mxCell id="5OzxzXaVveCsNpC4uV2Q-236" value="EQUIPO D" style="text;html=1;align=center;verticalAlign=middle;whiteSpace=wrap;rounded=0;" vertex="1" parent="1">
          <mxGeometry x="681.25" y="990" width="65" height="30" as="geometry" />
        </mxCell>
        <mxCell id="5OzxzXaVveCsNpC4uV2Q-237" value="&lt;font style=&quot;font-size: 13px;&quot;&gt;&lt;b style=&quot;&quot;&gt;3-2&lt;/b&gt;&lt;/font&gt;" style="text;html=1;align=center;verticalAlign=middle;whiteSpace=wrap;rounded=0;" vertex="1" parent="1">
          <mxGeometry x="476.25" y="990" width="65" height="30" as="geometry" />
        </mxCell>
        <mxCell id="5OzxzXaVveCsNpC4uV2Q-238" value="" style="verticalLabelPosition=bottom;shadow=0;dashed=0;align=center;html=1;verticalAlign=top;strokeWidth=1;shape=mxgraph.mockup.graphics.simpleIcon;strokeColor=#999999;" vertex="1" parent="1">
          <mxGeometry x="233.75" y="880" width="15" height="10" as="geometry" />
        </mxCell>
        <mxCell id="5OzxzXaVveCsNpC4uV2Q-239" value="" style="verticalLabelPosition=bottom;shadow=0;dashed=0;align=center;html=1;verticalAlign=top;strokeWidth=1;shape=mxgraph.mockup.graphics.simpleIcon;strokeColor=#999999;" vertex="1" parent="1">
          <mxGeometry x="233.75" y="910" width="15" height="10" as="geometry" />
        </mxCell>
        <mxCell id="5OzxzXaVveCsNpC4uV2Q-240" value="" style="verticalLabelPosition=bottom;shadow=0;dashed=0;align=center;html=1;verticalAlign=top;strokeWidth=1;shape=mxgraph.mockup.graphics.simpleIcon;strokeColor=#999999;" vertex="1" parent="1">
          <mxGeometry x="233.75" y="940" width="15" height="10" as="geometry" />
        </mxCell>
        <mxCell id="5OzxzXaVveCsNpC4uV2Q-241" value="" style="verticalLabelPosition=bottom;shadow=0;dashed=0;align=center;html=1;verticalAlign=top;strokeWidth=1;shape=mxgraph.mockup.graphics.simpleIcon;strokeColor=#999999;" vertex="1" parent="1">
          <mxGeometry x="233.75" y="970" width="15" height="10" as="geometry" />
        </mxCell>
        <mxCell id="5OzxzXaVveCsNpC4uV2Q-242" value="" style="verticalLabelPosition=bottom;shadow=0;dashed=0;align=center;html=1;verticalAlign=top;strokeWidth=1;shape=mxgraph.mockup.graphics.simpleIcon;strokeColor=#999999;" vertex="1" parent="1">
          <mxGeometry x="233.75" y="1000" width="15" height="10" as="geometry" />
        </mxCell>
        <mxCell id="5OzxzXaVveCsNpC4uV2Q-243" value="" style="verticalLabelPosition=bottom;shadow=0;dashed=0;align=center;html=1;verticalAlign=top;strokeWidth=1;shape=mxgraph.mockup.graphics.simpleIcon;strokeColor=#999999;" vertex="1" parent="1">
          <mxGeometry x="651.25" y="880" width="15" height="10" as="geometry" />
        </mxCell>
        <mxCell id="5OzxzXaVveCsNpC4uV2Q-244" value="" style="verticalLabelPosition=bottom;shadow=0;dashed=0;align=center;html=1;verticalAlign=top;strokeWidth=1;shape=mxgraph.mockup.graphics.simpleIcon;strokeColor=#999999;" vertex="1" parent="1">
          <mxGeometry x="651.25" y="910" width="15" height="10" as="geometry" />
        </mxCell>
        <mxCell id="5OzxzXaVveCsNpC4uV2Q-245" value="" style="verticalLabelPosition=bottom;shadow=0;dashed=0;align=center;html=1;verticalAlign=top;strokeWidth=1;shape=mxgraph.mockup.graphics.simpleIcon;strokeColor=#999999;" vertex="1" parent="1">
          <mxGeometry x="651.25" y="940" width="15" height="10" as="geometry" />
        </mxCell>
        <mxCell id="5OzxzXaVveCsNpC4uV2Q-246" value="" style="verticalLabelPosition=bottom;shadow=0;dashed=0;align=center;html=1;verticalAlign=top;strokeWidth=1;shape=mxgraph.mockup.graphics.simpleIcon;strokeColor=#999999;" vertex="1" parent="1">
          <mxGeometry x="651.25" y="970" width="15" height="10" as="geometry" />
        </mxCell>
        <mxCell id="5OzxzXaVveCsNpC4uV2Q-247" value="" style="verticalLabelPosition=bottom;shadow=0;dashed=0;align=center;html=1;verticalAlign=top;strokeWidth=1;shape=mxgraph.mockup.graphics.simpleIcon;strokeColor=#999999;" vertex="1" parent="1">
          <mxGeometry x="651.25" y="1000" width="15" height="10" as="geometry" />
        </mxCell>
      </root>
    </mxGraphModel>
  </diagram>
</mxfile>
